HIERARCHY
ROOT root
{
	OFFSET	0	13.1	24.9
	CHANNELS 6  Xposition Yposition Zposition Xrotation Yrotation Zrotation
	JOINT spine_1
	{
		OFFSET	0	9.99999	0
		CHANNELS 3  Xrotation Yrotation Zrotation
		JOINT spine_2
		{
			OFFSET	0	112	-10
			CHANNELS 3  Xrotation Yrotation Zrotation
			JOINT spine_3
			{
				OFFSET	0	206.5	19.3
				CHANNELS 3  Xrotation Yrotation Zrotation
				JOINT spine_4
				{
					OFFSET	0	110.4	14.6
					CHANNELS 3  Xrotation Yrotation Zrotation
					JOINT neck_1
					{
						OFFSET	0	71.8	-50.3
						CHANNELS 3  Xrotation Yrotation Zrotation
						JOINT neck_2
						{
							OFFSET	0	86.2	-25.8
							CHANNELS 3  Xrotation Yrotation Zrotation
							JOINT head_ee
							{
								OFFSET	0	179.8	-8.7
								CHANNELS 3  Xrotation Yrotation Zrotation
								End Site
								{
									OFFSET	1	0	0
								}
							}
						}
					}
					JOINT left_clavicle
					{
						OFFSET	-43.2	22.4	-70.8
						CHANNELS 3  Xrotation Yrotation Zrotation
						JOINT left_shoulder
						{
							OFFSET	-93.9	-5.79999	48.7
							CHANNELS 3  Xrotation Yrotation Zrotation
							JOINT left_elbow
							{
								OFFSET	-291.4	-30.8	15.2
								CHANNELS 3  Xrotation Yrotation Zrotation
								JOINT left_lowarm_twist
								{
									OFFSET	-110.7	-3.89999	13.6
									CHANNELS 3  Xrotation Yrotation Zrotation
									JOINT left_hand
									{
										OFFSET	-110.7	-3.89999	13.6
										CHANNELS 3  Xrotation Yrotation Zrotation
										JOINT left_ee
										{
											OFFSET	-80.8	-5.10001	12.1
											CHANNELS 3  Xrotation Yrotation Zrotation
											End Site
											{
												OFFSET	1	0	0
											}
										}
									}
								}
							}
						}
					}
					JOINT right_clavicle
					{
						OFFSET	43.2	22.4	-70.8
						CHANNELS 3  Xrotation Yrotation Zrotation
						JOINT right_shoulder
						{
							OFFSET	93.9	-5.79999	48.7
							CHANNELS 3  Xrotation Yrotation Zrotation
							JOINT right_elbow
							{
								OFFSET	291.4	-30.8	15.2
								CHANNELS 3  Xrotation Yrotation Zrotation
								JOINT right_lowarm_twist
								{
									OFFSET	110.7	-3.89999	13.6
									CHANNELS 3  Xrotation Yrotation Zrotation
									JOINT right_hand
									{
										OFFSET	110.7	-3.89999	13.6
										CHANNELS 3  Xrotation Yrotation Zrotation
										JOINT right_ee
										{
											OFFSET	80.8	-5.10001	12.1
											CHANNELS 3  Xrotation Yrotation Zrotation
											End Site
											{
												OFFSET	1	0	0
											}
										}
									}
								}
							}
						}
					}
				}
			}
		}
	}
	JOINT left_hip
	{
		OFFSET	-82.8	-127.5	0.300001
		CHANNELS 3  Xrotation Yrotation Zrotation
		JOINT left_knee
		{
			OFFSET	-28.2	-396.7	2.2
			CHANNELS 3  Xrotation Yrotation Zrotation
			JOINT left_ankle
			{
				OFFSET	-11.7	-411.3	35.4
				CHANNELS 3  Xrotation Yrotation Zrotation
				JOINT left_toes
				{
					OFFSET	0	-60	-88.6
					CHANNELS 3  Xrotation Yrotation Zrotation
					JOINT left_foot_ee
					{
						OFFSET	-22.5	-16.5	-42.2
						CHANNELS 3  Xrotation Yrotation Zrotation
						End Site
						{
							OFFSET	1	0	0
						}
					}
				}
			}
		}
	}
	JOINT right_hip
	{
		OFFSET	82.8	-127.5	0.300001
		CHANNELS 3  Xrotation Yrotation Zrotation
		JOINT right_knee
		{
			OFFSET	28.2	-396.7	2.2
			CHANNELS 3  Xrotation Yrotation Zrotation
			JOINT right_ankle
			{
				OFFSET	11.7	-411.3	35.4
				CHANNELS 3  Xrotation Yrotation Zrotation
				JOINT right_toes
				{
					OFFSET	0	-60	-88.6
					CHANNELS 3  Xrotation Yrotation Zrotation
					JOINT right_foot_ee
					{
						OFFSET	22.5	-16.5	-42.2
						CHANNELS 3  Xrotation Yrotation Zrotation
						End Site
						{
							OFFSET	1	0	0
						}
					}
				}
			}
		}
	}
}
MOTION
Frames: 12
Frame Time: 0.02
2860.84123653 706.557 -1610.08817207 19.4709952669 63.5817664582 -22.2398509461 -1.67951 0.619006 4.54448 -1.66808 0.328885 4.57457 -1.63087 -0.770169 4.52136 -1.65939 -0.0472212 4.58611 -18.6307 17.2499 -3.92806 -20.4761 35.2198 3.92203 -0.0 0.0 -0.0 -1.5064 12.8613 -0.977859 2.84491 -19.3963 55.6459 1.38436 -34.4394 0.429072 14.8633 0.28224 -1.87237 -0.677986 23.5495 5.47708 -0.0 0.0 -0.0 11.9698 28.4178 -23.0191 -16.9718 31.3648 -66.3956 0.765351 20.7633 -0.140217 56.2847 1.45455 6.75482 1.71306 -11.5185 -15.8486 0.0 0.0 0.0 -1.03733 16.9246 3.89166 -24.9418 0.204345 3.79196 35.8948 0.232368 -4.50313 -37.9539 0.0 0.0 -0.0 0.0 -0.0 6.26591 29.5516 -2.59657 -45.842 0.879625 -6.79595 19.411 -27.6138 2.83534 36.2751 -0.0 -0.0 0.0 0.0 0.0 
2858.1113102 709.784 -1591.36402635 20.589836132 65.08287257 -23.5889578229 -1.69283 0.658795 4.62316 -1.68102 0.363603 4.65562 -1.64 -0.756445 4.60822 -1.66962 -0.0199946 4.66972 -19.3074 17.3229 -3.76335 -21.276 35.2484 4.36177 -0.0 0.0 -0.0 -1.49595 11.6253 -1.14948 4.20714 -19.726 55.0796 1.35805 -33.9284 0.414287 14.2864 0.280404 -1.79871 -0.762479 23.3834 4.92303 -0.0 0.0 -0.0 11.8906 28.2994 -22.8547 -16.7783 31.5215 -65.8991 0.743032 20.2075 -0.132406 56.5495 1.47655 6.78066 1.63738 -12.1432 -15.5649 0.0 0.0 0.0 -2.94758 17.3963 4.70314 -22.393 0.259542 3.40475 35.283 0.262332 -4.44452 -38.398 0.0 0.0 -0.0 0.0 -0.0 9.14774 29.0798 -3.18219 -43.2126 0.683699 -6.44206 15.6719 -29.0779 2.34459 34.7207 -0.0 -0.0 0.0 0.0 0.0 
2854.16601013 711.252 -1574.44660475 22.9699772476 67.3433022436 -26.7122873986 -1.63521 0.82515 4.71712 -1.62299 0.523665 4.75993 -1.56726 -0.619364 4.74845 -1.59868 0.137449 4.78661 -19.6577 17.6379 -4.62428 -21.812 36.2685 3.89833 -0.0 0.0 -0.0 -1.47151 10.7565 -1.24022 6.49464 -20.0124 53.6886 1.34388 -33.6508 0.406409 13.8037 0.278297 -1.73709 -0.808453 22.7287 4.3871 -0.0 0.0 -0.0 12.3317 27.6086 -23.9463 -17.9486 31.256 -64.2067 0.747481 20.3186 -0.133947 56.7702 1.49497 6.80212 1.45192 -14.8913 -15.2945 0.0 0.0 0.0 -4.38309 20.9076 5.57169 -20.1901 0.293331 3.06843 31.8175 0.39107 -4.09829 -39.2884 0.0 0.0 -0.0 0.0 -0.0 11.4396 28.2982 -4.33028 -40.898 0.524885 -6.12353 10.2807 -30.1835 1.57786 32.0285 -0.0 -0.0 0.0 0.0 0.0 
2844.05883945 712.446 -1557.5713455 24.4107947552 68.3040755817 -28.0026502926 -1.71081 0.882532 4.66382 -1.6989 0.584311 4.71038 -1.63845 -0.554336 4.71399 -1.6694 0.196242 4.74235 -22.1751 17.6232 -5.62173 -24.8102 36.5131 3.94392 -0.0 0.0 -0.0 -1.63109 10.8568 -1.49776 8.09294 -19.1578 52.7095 1.63766 -39.0476 0.580727 13.0074 0.273688 -1.63549 -1.02665 22.0234 2.82238 -0.0 0.0 -0.0 12.4602 27.3469 -24.2728 -19.8181 30.8912 -62.8705 0.748831 20.3523 -0.134416 56.8578 1.5023 6.81061 1.57264 -15.046 -16.1285 0.0 0.0 0.0 -6.99361 21.1739 6.50115 -18.9966 0.306228 2.88577 31.2084 0.562922 -4.03394 -39.2291 0.0 0.0 -0.0 0.0 -0.0 13.8532 27.9651 -5.00556 -38.4884 0.373414 -5.78551 4.55459 -29.6453 0.707558 30.0661 -0.0 -0.0 0.0 0.0 0.0 
2810.0401879 714.266 -1526.2509815 24.9800529938 69.1118754887 -29.7681742961 -1.91823 1.08225 4.66987 -1.90645 0.783238 4.72909 -1.82806 -0.380771 4.77825 -1.8597 0.377758 4.77849 -23.0252 18.803 -4.46352 -26.1841 38.1487 6.12339 -0.0 0.0 -0.0 -0.76469 11.1918 0.0267524 13.0342 -16.354 51.515 2.44528 -50.4509 1.15212 11.0713 0.256594 -1.38879 -1.2595 16.4258 -1.02968 -0.0 0.0 -0.0 12.7736 26.9483 -25.041 -23.3306 30.2021 -59.6461 0.62824 17.2869 -0.0955003 57.0711 1.52022 6.83126 1.43549 -21.3259 -17.2589 0.0 0.0 0.0 -13.6168 27.0911 11.0859 -18.0141 0.313989 2.73522 26.7313 1.02605 -3.54473 -37.1074 0.0 0.0 -0.0 0.0 -0.0 16.5191 28.2141 -2.2692 -20.9695 -0.282855 -3.18757 -0.296944 -16.2343 -0.0438927 23.9803 -0.0 -0.0 0.0 0.0 0.0 
2809.66158633 714.266 -1527.22614391 24.812794318 68.9738451222 -29.589067532 -1.91823 1.08225 4.66987 -1.90645 0.783238 4.72909 -1.82806 -0.380771 4.77825 -1.8597 0.377758 4.77849 -23.0252 18.803 -4.46352 -26.1841 38.1487 6.12339 -0.0 0.0 -0.0 -0.76469 11.1918 0.0267524 13.0342 -16.354 51.515 2.44528 -50.4509 1.15212 11.0713 0.256594 -1.38879 -1.2595 16.4258 -1.02968 -0.0 0.0 -0.0 12.7736 26.9483 -25.041 -23.3306 30.2021 -59.6461 0.62824 17.2869 -0.0955003 57.0711 1.52022 6.83126 1.43549 -21.3259 -17.2589 0.0 0.0 0.0 -13.6168 27.0911 11.0859 -18.0141 0.313989 2.73522 26.7313 1.02605 -3.54473 -37.1074 0.0 0.0 -0.0 0.0 -0.0 16.5191 28.2141 -2.2692 -20.9695 -0.282855 -3.18757 -0.296944 -16.2343 -0.0438927 23.9803 -0.0 -0.0 0.0 0.0 0.0 
2808.97699637 714.266 -1529.00924302 24.5131463185 68.7213446118 -29.2677727663 -1.91823 1.08225 4.66987 -1.90645 0.783238 4.72909 -1.82806 -0.380771 4.77825 -1.8597 0.377758 4.77849 -23.0252 18.803 -4.46352 -26.1841 38.1487 6.12339 -0.0 0.0 -0.0 -0.76469 11.1918 0.0267524 13.0342 -16.354 51.515 2.44528 -50.4509 1.15212 11.0713 0.256594 -1.38879 -1.2595 16.4258 -1.02968 -0.0 0.0 -0.0 12.7736 26.9483 -25.041 -23.3306 30.2021 -59.6461 0.62824 17.2869 -0.0955003 57.0711 1.52022 6.83126 1.43549 -21.3259 -17.2589 0.0 0.0 0.0 -13.6168 27.0911 11.0859 -18.0141 0.313989 2.73522 26.7313 1.02605 -3.54473 -37.1074 0.0 0.0 -0.0 0.0 -0.0 16.5191 28.2141 -2.2692 -20.9695 -0.282855 -3.18757 -0.296944 -16.2343 -0.0438927 23.9803 -0.0 -0.0 0.0 0.0 0.0 
2798.67460447 715.201 -1526.69408077 23.3582083991 68.4699713882 -28.507058919 -1.94703 1.01839 4.70146 -1.93502 0.717508 4.75656 -1.86164 -0.454244 4.7888 -1.8935 0.306861 4.80047 -25.9181 18.9312 -3.31617 -29.5926 37.6034 8.38401 -0.0 0.0 -0.0 -0.454066 9.89909 0.388795 14.3711 -15.2917 51.1364 2.73982 -53.6077 1.38441 11.2497 0.258518 -1.4115 -1.40159 15.1671 -2.4747 -0.0 0.0 -0.0 12.5971 27.191 -24.6058 -23.5879 30.392 -59.6514 0.606311 16.7177 -0.0890883 57.7455 1.57737 6.8961 1.92518 -20.7962 -20.1778 0.0 0.0 0.0 -15.2404 27.8135 13.0704 -16.5026 0.320885 2.50342 25.6426 4.05799 -3.40814 -34.8731 0.0 0.0 -0.0 0.0 -0.0 15.3621 28.4056 -0.990476 -12.5175 -0.309742 -1.89221 -7.58978 -13.3363 -1.13131 20.9734 -0.0 -0.0 0.0 0.0 0.0 
2797.93407991 715.201 -1528.67456809 23.0609939836 68.1945926989 -28.1872478571 -1.94703 1.01839 4.70146 -1.93502 0.717508 4.75656 -1.86164 -0.454244 4.7888 -1.8935 0.306861 4.80047 -25.9181 18.9312 -3.31617 -29.5926 37.6034 8.38401 -0.0 0.0 -0.0 -0.454066 9.89909 0.388795 14.3711 -15.2917 51.1364 2.73982 -53.6077 1.38441 11.2497 0.258518 -1.4115 -1.40159 15.1671 -2.4747 -0.0 0.0 -0.0 12.5971 27.191 -24.6058 -23.5879 30.392 -59.6514 0.606311 16.7177 -0.0890883 57.7455 1.57737 6.8961 1.92518 -20.7962 -20.1778 0.0 0.0 0.0 -15.2404 27.8135 13.0704 -16.5026 0.320885 2.50342 25.6426 4.05799 -3.40814 -34.8731 0.0 0.0 -0.0 0.0 -0.0 15.3621 28.4056 -0.990476 -12.5175 -0.309742 -1.89221 -7.58978 -13.3363 -1.13131 20.9734 -0.0 -0.0 0.0 0.0 0.0 
2743.73113313 708.787 -1524.99335989 23.0437565048 69.9840675517 -29.2955121071 -2.13541 0.700716 5.06339 -2.12123 0.377528 5.09759 -2.07232 -0.886705 5.03422 -2.10766 -0.0815981 5.11087 -23.8128 18.6843 -3.20605 -26.9858 37.3003 7.46408 -0.0 0.0 -0.0 -0.683857 11.745 0.237517 17.0271 -15.9711 51.2445 4.29436 -64.8027 2.72619 10.0133 0.243733 -1.25426 -1.02927 11.8012 -1.65495 -0.0 0.0 -0.0 13.1766 26.423 -26.0347 -23.5957 31.232 -59.1844 0.507945 14.1238 -0.0629254 56.7098 1.48992 6.79625 1.66985 -26.2837 -20.0913 0.0 0.0 0.0 -19.169 25.4317 16.1329 -11.4512 0.299555 1.72893 23.6886 5.21156 -3.17847 -35.6454 0.0 0.0 -0.0 0.0 -0.0 17.2626 29.1276 0.16759 6.10332 0.299 0.888132 -20.3579 -3.24063 -3.07478 18.7822 -0.0 -0.0 0.0 0.0 0.0 
2742.17340682 708.787 -1529.75791444 22.3874349582 69.4039370683 -28.5957090199 -2.13541 0.700716 5.06339 -2.12123 0.377528 5.09759 -2.07232 -0.886705 5.03422 -2.10766 -0.0815981 5.11087 -23.8128 18.6843 -3.20605 -26.9858 37.3003 7.46408 -0.0 0.0 -0.0 -0.683857 11.745 0.237517 17.0271 -15.9711 51.2445 4.29436 -64.8027 2.72619 10.0133 0.243733 -1.25426 -1.02927 11.8012 -1.65495 -0.0 0.0 -0.0 13.1766 26.423 -26.0347 -23.5957 31.232 -59.1844 0.507945 14.1238 -0.0629254 56.7098 1.48992 6.79625 1.66985 -26.2837 -20.0913 0.0 0.0 0.0 -19.169 25.4317 16.1329 -11.4512 0.299555 1.72893 23.6886 5.21156 -3.17847 -35.6454 0.0 0.0 -0.0 0.0 -0.0 17.2626 29.1276 0.16759 6.10332 0.299 0.888132 -20.3579 -3.24063 -3.07478 18.7822 -0.0 -0.0 0.0 0.0 0.0 
2740.13786563 708.787 -1536.2683357 21.5530161864 68.6102635216 -27.7019917997 -2.13541 0.700716 5.06339 -2.12123 0.377528 5.09759 -2.07232 -0.886705 5.03422 -2.10766 -0.0815981 5.11087 -23.8128 18.6843 -3.20605 -26.9858 37.3003 7.46408 -0.0 0.0 -0.0 -0.683857 11.745 0.237517 17.0271 -15.9711 51.2445 4.29436 -64.8027 2.72619 10.0133 0.243733 -1.25426 -1.02927 11.8012 -1.65495 -0.0 0.0 -0.0 13.1766 26.423 -26.0347 -23.5957 31.232 -59.1844 0.507945 14.1238 -0.0629254 56.7098 1.48992 6.79625 1.66985 -26.2837 -20.0913 0.0 0.0 0.0 -19.169 25.4317 16.1329 -11.4512 0.299555 1.72893 23.6886 5.21156 -3.17847 -35.6454 0.0 0.0 -0.0 0.0 -0.0 17.2626 29.1276 0.16759 6.10332 0.299 0.888132 -20.3579 -3.24063 -3.07478 18.7822 -0.0 -0.0 0.0 0.0 0.0 
